<svg width="203" height="56" viewBox="0 0 203 56" fill="none" xmlns="http://www.w3.org/2000/svg">
<path d="M24.3321 12.3465C28.1287 10.0999 32.6237 9.31925 36.9617 10.1531C41.2998 10.9869 45.178 13.377 47.8584 16.8685L55.7177 10.9067C51.5658 5.49825 45.5583 1.79594 38.8386 0.504332C32.119 -0.78727 25.1561 0.421994 19.2751 3.902C14.6247 6.65383 10.9074 10.6736 8.53625 15.4432H0V19.655H6.85774L17.4709 19.655C19.0044 16.6382 21.3763 14.0956 24.3321 12.3465Z" fill="#8009A9"/>
<path d="M24.3321 12.3465C28.1287 10.0999 32.6237 9.31925 36.9617 10.1531C41.2998 10.9869 45.178 13.377 47.8584 16.8685L55.7177 10.9067C51.5658 5.49825 45.5583 1.79594 38.8386 0.504332C32.119 -0.78727 25.1561 0.421994 19.2751 3.902C14.6247 6.65383 10.9074 10.6736 8.53625 15.4432H0V19.655H6.85774L17.4709 19.655C19.0044 16.6382 21.3763 14.0956 24.3321 12.3465Z" fill="url(#paint0_linear_6009_4881)"/>
<path d="M24.3321 12.3465C28.1287 10.0999 32.6237 9.31925 36.9617 10.1531C41.2998 10.9869 45.178 13.377 47.8584 16.8685L55.7177 10.9067C51.5658 5.49825 45.5583 1.79594 38.8386 0.504332C32.119 -0.78727 25.1561 0.421994 19.2751 3.902C14.6247 6.65383 10.9074 10.6736 8.53625 15.4432H0V19.655H6.85774L17.4709 19.655C19.0044 16.6382 21.3763 14.0956 24.3321 12.3465Z" fill="url(#paint1_linear_6009_4881)"/>
<path d="M24.3321 12.3465C28.1287 10.0999 32.6237 9.31925 36.9617 10.1531C41.2998 10.9869 45.178 13.377 47.8584 16.8685L55.7177 10.9067C51.5658 5.49825 45.5583 1.79594 38.8386 0.504332C32.119 -0.78727 25.1561 0.421994 19.2751 3.902C14.6247 6.65383 10.9074 10.6736 8.53625 15.4432H0V19.655H6.85774L17.4709 19.655C19.0044 16.6382 21.3763 14.0956 24.3321 12.3465Z" fill="url(#paint2_linear_6009_4881)"/>
<path d="M5.65161 27.3765H0V22.4628L16.3323 22.4628C15.0466 26.6157 15.3241 31.0935 17.1159 35.06C18.9258 39.0666 22.1544 42.272 26.1874 44.0661C28.4111 45.0553 30.7937 45.5774 33.1899 45.6241V45.6276L63.5553 45.6276V49.8393H50.3731C47.8623 51.7277 45.0276 53.1954 41.9768 54.1573C35.4529 56.2143 28.396 55.8153 22.1489 53.0362C15.9018 50.2572 10.9006 45.292 8.09705 39.0856C6.42141 35.3762 5.60071 31.3782 5.65161 27.3765Z" fill="#8009A9"/>
<path d="M5.65161 27.3765H0V22.4628L16.3323 22.4628C15.0466 26.6157 15.3241 31.0935 17.1159 35.06C18.9258 39.0666 22.1544 42.272 26.1874 44.0661C28.4111 45.0553 30.7937 45.5774 33.1899 45.6241V45.6276L63.5553 45.6276V49.8393H50.3731C47.8623 51.7277 45.0276 53.1954 41.9768 54.1573C35.4529 56.2143 28.396 55.8153 22.1489 53.0362C15.9018 50.2572 10.9006 45.292 8.09705 39.0856C6.42141 35.3762 5.60071 31.3782 5.65161 27.3765Z" fill="url(#paint3_linear_6009_4881)"/>
<path d="M5.65161 27.3765H0V22.4628L16.3323 22.4628C15.0466 26.6157 15.3241 31.0935 17.1159 35.06C18.9258 39.0666 22.1544 42.272 26.1874 44.0661C28.4111 45.0553 30.7937 45.5774 33.1899 45.6241V45.6276L63.5553 45.6276V49.8393H50.3731C47.8623 51.7277 45.0276 53.1954 41.9768 54.1573C35.4529 56.2143 28.396 55.8153 22.1489 53.0362C15.9018 50.2572 10.9006 45.292 8.09705 39.0856C6.42141 35.3762 5.60071 31.3782 5.65161 27.3765Z" fill="url(#paint4_linear_6009_4881)"/>
<path d="M5.65161 27.3765H0V22.4628L16.3323 22.4628C15.0466 26.6157 15.3241 31.0935 17.1159 35.06C18.9258 39.0666 22.1544 42.272 26.1874 44.0661C28.4111 45.0553 30.7937 45.5774 33.1899 45.6241V45.6276L63.5553 45.6276V49.8393H50.3731C47.8623 51.7277 45.0276 53.1954 41.9768 54.1573C35.4529 56.2143 28.396 55.8153 22.1489 53.0362C15.9018 50.2572 10.9006 45.292 8.09705 39.0856C6.42141 35.3762 5.60071 31.3782 5.65161 27.3765Z" fill="url(#paint5_linear_6009_4881)"/>
<path d="M43.2257 42.8197C45.584 41.3246 47.5783 39.292 49.0279 36.8643C49.8876 35.4246 50.5329 33.8842 50.9556 32.2903L38.1332 32.2903V22.4628L60.7306 22.4628V22.4665L60.9228 22.4293C61.994 27.8992 61.3775 33.5334 59.1996 38.6079H63.5553V42.8197L43.2257 42.8197Z" fill="#8009A9"/>
<path d="M43.2257 42.8197C45.584 41.3246 47.5783 39.292 49.0279 36.8643C49.8876 35.4246 50.5329 33.8842 50.9556 32.2903L38.1332 32.2903V22.4628L60.7306 22.4628V22.4665L60.9228 22.4293C61.994 27.8992 61.3775 33.5334 59.1996 38.6079H63.5553V42.8197L43.2257 42.8197Z" fill="url(#paint6_linear_6009_4881)"/>
<path d="M43.2257 42.8197C45.584 41.3246 47.5783 39.292 49.0279 36.8643C49.8876 35.4246 50.5329 33.8842 50.9556 32.2903L38.1332 32.2903V22.4628L60.7306 22.4628V22.4665L60.9228 22.4293C61.994 27.8992 61.3775 33.5334 59.1996 38.6079H63.5553V42.8197L43.2257 42.8197Z" fill="url(#paint7_linear_6009_4881)"/>
<path d="M43.2257 42.8197C45.584 41.3246 47.5783 39.292 49.0279 36.8643C49.8876 35.4246 50.5329 33.8842 50.9556 32.2903L38.1332 32.2903V22.4628L60.7306 22.4628V22.4665L60.9228 22.4293C61.994 27.8992 61.3775 33.5334 59.1996 38.6079H63.5553V42.8197L43.2257 42.8197Z" fill="url(#paint8_linear_6009_4881)"/>
<path d="M89.1305 29.059C86.6021 29.059 84.4292 28.6331 82.6119 27.7813C80.8144 26.9101 79.4317 25.6614 78.4637 24.0352C77.5156 22.409 77.0415 20.4537 77.0415 18.1693C77.0415 15.8849 77.5057 13.9392 78.4341 12.3324C79.3823 10.7062 80.7354 9.45753 82.4934 8.58635C84.2515 7.71517 86.3552 7.27959 88.8046 7.27959C90.1676 7.27959 91.4318 7.4151 92.5972 7.68614C93.7824 7.95717 94.8491 8.36372 95.7973 8.90578L94.5528 13.5521C93.8219 13.1068 92.9232 12.7486 91.8565 12.4776C90.8096 12.2066 89.7923 12.0711 88.8046 12.0711C87.5996 12.0711 86.5823 12.3034 85.7527 12.768C84.9428 13.2326 84.3206 13.9199 83.886 14.8298C83.4712 15.7203 83.2638 16.8335 83.2638 18.1693C83.2638 19.5244 83.4811 20.657 83.9157 21.5669C84.3502 22.4574 85.0021 23.135 85.8712 23.5996C86.7404 24.0449 87.8268 24.2675 89.1305 24.2675C89.7034 24.2675 90.1972 24.2191 90.612 24.1223C91.0466 24.0255 91.491 23.861 91.9454 23.6287L91.2639 24.9645V20.6086H86.5231V15.8171H97.1899V27.3166C96.1034 27.8781 94.859 28.3136 93.4565 28.6234C92.054 28.9138 90.612 29.059 89.1305 29.059Z" fill="#8009A9"/>
<path d="M89.1305 29.059C86.6021 29.059 84.4292 28.6331 82.6119 27.7813C80.8144 26.9101 79.4317 25.6614 78.4637 24.0352C77.5156 22.409 77.0415 20.4537 77.0415 18.1693C77.0415 15.8849 77.5057 13.9392 78.4341 12.3324C79.3823 10.7062 80.7354 9.45753 82.4934 8.58635C84.2515 7.71517 86.3552 7.27959 88.8046 7.27959C90.1676 7.27959 91.4318 7.4151 92.5972 7.68614C93.7824 7.95717 94.8491 8.36372 95.7973 8.90578L94.5528 13.5521C93.8219 13.1068 92.9232 12.7486 91.8565 12.4776C90.8096 12.2066 89.7923 12.0711 88.8046 12.0711C87.5996 12.0711 86.5823 12.3034 85.7527 12.768C84.9428 13.2326 84.3206 13.9199 83.886 14.8298C83.4712 15.7203 83.2638 16.8335 83.2638 18.1693C83.2638 19.5244 83.4811 20.657 83.9157 21.5669C84.3502 22.4574 85.0021 23.135 85.8712 23.5996C86.7404 24.0449 87.8268 24.2675 89.1305 24.2675C89.7034 24.2675 90.1972 24.2191 90.612 24.1223C91.0466 24.0255 91.491 23.861 91.9454 23.6287L91.2639 24.9645V20.6086H86.5231V15.8171H97.1899V27.3166C96.1034 27.8781 94.859 28.3136 93.4565 28.6234C92.054 28.9138 90.612 29.059 89.1305 29.059Z" fill="url(#paint9_linear_6009_4881)"/>
<path d="M89.1305 29.059C86.6021 29.059 84.4292 28.6331 82.6119 27.7813C80.8144 26.9101 79.4317 25.6614 78.4637 24.0352C77.5156 22.409 77.0415 20.4537 77.0415 18.1693C77.0415 15.8849 77.5057 13.9392 78.4341 12.3324C79.3823 10.7062 80.7354 9.45753 82.4934 8.58635C84.2515 7.71517 86.3552 7.27959 88.8046 7.27959C90.1676 7.27959 91.4318 7.4151 92.5972 7.68614C93.7824 7.95717 94.8491 8.36372 95.7973 8.90578L94.5528 13.5521C93.8219 13.1068 92.9232 12.7486 91.8565 12.4776C90.8096 12.2066 89.7923 12.0711 88.8046 12.0711C87.5996 12.0711 86.5823 12.3034 85.7527 12.768C84.9428 13.2326 84.3206 13.9199 83.886 14.8298C83.4712 15.7203 83.2638 16.8335 83.2638 18.1693C83.2638 19.5244 83.4811 20.657 83.9157 21.5669C84.3502 22.4574 85.0021 23.135 85.8712 23.5996C86.7404 24.0449 87.8268 24.2675 89.1305 24.2675C89.7034 24.2675 90.1972 24.2191 90.612 24.1223C91.0466 24.0255 91.491 23.861 91.9454 23.6287L91.2639 24.9645V20.6086H86.5231V15.8171H97.1899V27.3166C96.1034 27.8781 94.859 28.3136 93.4565 28.6234C92.054 28.9138 90.612 29.059 89.1305 29.059Z" fill="url(#paint10_linear_6009_4881)"/>
<path d="M89.1305 29.059C86.6021 29.059 84.4292 28.6331 82.6119 27.7813C80.8144 26.9101 79.4317 25.6614 78.4637 24.0352C77.5156 22.409 77.0415 20.4537 77.0415 18.1693C77.0415 15.8849 77.5057 13.9392 78.4341 12.3324C79.3823 10.7062 80.7354 9.45753 82.4934 8.58635C84.2515 7.71517 86.3552 7.27959 88.8046 7.27959C90.1676 7.27959 91.4318 7.4151 92.5972 7.68614C93.7824 7.95717 94.8491 8.36372 95.7973 8.90578L94.5528 13.5521C93.8219 13.1068 92.9232 12.7486 91.8565 12.4776C90.8096 12.2066 89.7923 12.0711 88.8046 12.0711C87.5996 12.0711 86.5823 12.3034 85.7527 12.768C84.9428 13.2326 84.3206 13.9199 83.886 14.8298C83.4712 15.7203 83.2638 16.8335 83.2638 18.1693C83.2638 19.5244 83.4811 20.657 83.9157 21.5669C84.3502 22.4574 85.0021 23.135 85.8712 23.5996C86.7404 24.0449 87.8268 24.2675 89.1305 24.2675C89.7034 24.2675 90.1972 24.2191 90.612 24.1223C91.0466 24.0255 91.491 23.861 91.9454 23.6287L91.2639 24.9645V20.6086H86.5231V15.8171H97.1899V27.3166C96.1034 27.8781 94.859 28.3136 93.4565 28.6234C92.054 28.9138 90.612 29.059 89.1305 29.059Z" fill="url(#paint11_linear_6009_4881)"/>
<path d="M100.471 28.7686V7.56998H106.545V23.8319H116.768V28.7686H100.471Z" fill="#8009A9"/>
<path d="M100.471 28.7686V7.56998H106.545V23.8319H116.768V28.7686H100.471Z" fill="url(#paint12_linear_6009_4881)"/>
<path d="M100.471 28.7686V7.56998H106.545V23.8319H116.768V28.7686H100.471Z" fill="url(#paint13_linear_6009_4881)"/>
<path d="M100.471 28.7686V7.56998H106.545V23.8319H116.768V28.7686H100.471Z" fill="url(#paint14_linear_6009_4881)"/>
<path d="M128.116 29.059C125.765 29.059 123.741 28.6331 122.042 27.7813C120.363 26.9101 119.079 25.6614 118.19 24.0352C117.301 22.409 116.857 20.4537 116.857 18.1693C116.857 15.8849 117.301 13.9296 118.19 12.3034C119.079 10.6772 120.363 9.43817 122.042 8.58635C123.741 7.71517 125.765 7.27959 128.116 7.27959C130.487 7.27959 132.511 7.71517 134.19 8.58635C135.869 9.43817 137.153 10.6772 138.042 12.3034C138.931 13.9296 139.376 15.8849 139.376 18.1693C139.376 20.4537 138.931 22.409 138.042 24.0352C137.153 25.6614 135.869 26.9101 134.19 27.7813C132.511 28.6331 130.487 29.059 128.116 29.059ZM128.116 24.1223C129.262 24.1223 130.22 23.8997 130.99 23.4544C131.761 23.0091 132.333 22.3509 132.709 21.4798C133.104 20.5892 133.301 19.4857 133.301 18.1693C133.301 16.8528 133.104 15.759 132.709 14.8879C132.333 13.9973 131.761 13.3294 130.99 12.8841C130.22 12.4389 129.262 12.2162 128.116 12.2162C126.97 12.2162 126.012 12.4389 125.242 12.8841C124.472 13.3294 123.889 13.9973 123.494 14.8879C123.119 15.759 122.931 16.8528 122.931 18.1693C122.931 19.4857 123.119 20.5892 123.494 21.4798C123.889 22.3509 124.472 23.0091 125.242 23.4544C126.012 23.8997 126.97 24.1223 128.116 24.1223Z" fill="#8009A9"/>
<path d="M128.116 29.059C125.765 29.059 123.741 28.6331 122.042 27.7813C120.363 26.9101 119.079 25.6614 118.19 24.0352C117.301 22.409 116.857 20.4537 116.857 18.1693C116.857 15.8849 117.301 13.9296 118.19 12.3034C119.079 10.6772 120.363 9.43817 122.042 8.58635C123.741 7.71517 125.765 7.27959 128.116 7.27959C130.487 7.27959 132.511 7.71517 134.19 8.58635C135.869 9.43817 137.153 10.6772 138.042 12.3034C138.931 13.9296 139.376 15.8849 139.376 18.1693C139.376 20.4537 138.931 22.409 138.042 24.0352C137.153 25.6614 135.869 26.9101 134.19 27.7813C132.511 28.6331 130.487 29.059 128.116 29.059ZM128.116 24.1223C129.262 24.1223 130.22 23.8997 130.99 23.4544C131.761 23.0091 132.333 22.3509 132.709 21.4798C133.104 20.5892 133.301 19.4857 133.301 18.1693C133.301 16.8528 133.104 15.759 132.709 14.8879C132.333 13.9973 131.761 13.3294 130.99 12.8841C130.22 12.4389 129.262 12.2162 128.116 12.2162C126.97 12.2162 126.012 12.4389 125.242 12.8841C124.472 13.3294 123.889 13.9973 123.494 14.8879C123.119 15.759 122.931 16.8528 122.931 18.1693C122.931 19.4857 123.119 20.5892 123.494 21.4798C123.889 22.3509 124.472 23.0091 125.242 23.4544C126.012 23.8997 126.97 24.1223 128.116 24.1223Z" fill="url(#paint15_linear_6009_4881)"/>
<path d="M128.116 29.059C125.765 29.059 123.741 28.6331 122.042 27.7813C120.363 26.9101 119.079 25.6614 118.19 24.0352C117.301 22.409 116.857 20.4537 116.857 18.1693C116.857 15.8849 117.301 13.9296 118.19 12.3034C119.079 10.6772 120.363 9.43817 122.042 8.58635C123.741 7.71517 125.765 7.27959 128.116 7.27959C130.487 7.27959 132.511 7.71517 134.19 8.58635C135.869 9.43817 137.153 10.6772 138.042 12.3034C138.931 13.9296 139.376 15.8849 139.376 18.1693C139.376 20.4537 138.931 22.409 138.042 24.0352C137.153 25.6614 135.869 26.9101 134.19 27.7813C132.511 28.6331 130.487 29.059 128.116 29.059ZM128.116 24.1223C129.262 24.1223 130.22 23.8997 130.99 23.4544C131.761 23.0091 132.333 22.3509 132.709 21.4798C133.104 20.5892 133.301 19.4857 133.301 18.1693C133.301 16.8528 133.104 15.759 132.709 14.8879C132.333 13.9973 131.761 13.3294 130.99 12.8841C130.22 12.4389 129.262 12.2162 128.116 12.2162C126.97 12.2162 126.012 12.4389 125.242 12.8841C124.472 13.3294 123.889 13.9973 123.494 14.8879C123.119 15.759 122.931 16.8528 122.931 18.1693C122.931 19.4857 123.119 20.5892 123.494 21.4798C123.889 22.3509 124.472 23.0091 125.242 23.4544C126.012 23.8997 126.97 24.1223 128.116 24.1223Z" fill="url(#paint16_linear_6009_4881)"/>
<path d="M128.116 29.059C125.765 29.059 123.741 28.6331 122.042 27.7813C120.363 26.9101 119.079 25.6614 118.19 24.0352C117.301 22.409 116.857 20.4537 116.857 18.1693C116.857 15.8849 117.301 13.9296 118.19 12.3034C119.079 10.6772 120.363 9.43817 122.042 8.58635C123.741 7.71517 125.765 7.27959 128.116 7.27959C130.487 7.27959 132.511 7.71517 134.19 8.58635C135.869 9.43817 137.153 10.6772 138.042 12.3034C138.931 13.9296 139.376 15.8849 139.376 18.1693C139.376 20.4537 138.931 22.409 138.042 24.0352C137.153 25.6614 135.869 26.9101 134.19 27.7813C132.511 28.6331 130.487 29.059 128.116 29.059ZM128.116 24.1223C129.262 24.1223 130.22 23.8997 130.99 23.4544C131.761 23.0091 132.333 22.3509 132.709 21.4798C133.104 20.5892 133.301 19.4857 133.301 18.1693C133.301 16.8528 133.104 15.759 132.709 14.8879C132.333 13.9973 131.761 13.3294 130.99 12.8841C130.22 12.4389 129.262 12.2162 128.116 12.2162C126.97 12.2162 126.012 12.4389 125.242 12.8841C124.472 13.3294 123.889 13.9973 123.494 14.8879C123.119 15.759 122.931 16.8528 122.931 18.1693C122.931 19.4857 123.119 20.5892 123.494 21.4798C123.889 22.3509 124.472 23.0091 125.242 23.4544C126.012 23.8997 126.97 24.1223 128.116 24.1223Z" fill="url(#paint17_linear_6009_4881)"/>
<path d="M142.051 28.7686V7.56998H149.755C152.758 7.56998 155.039 8.01525 156.6 8.90578C158.16 9.77696 158.941 11.074 158.941 12.797C158.941 14.0941 158.545 15.1589 157.755 15.9913C156.985 16.8238 155.899 17.3465 154.496 17.5595V17.6175C156.136 17.8111 157.38 18.3435 158.229 19.2147C159.099 20.0665 159.533 21.2184 159.533 22.6704C159.533 24.6644 158.723 26.1841 157.103 27.2295C155.484 28.2556 153.133 28.7686 150.052 28.7686H142.051ZM150.052 24.2675C151.217 24.2675 152.076 24.0933 152.629 23.7448C153.182 23.3963 153.459 22.864 153.459 22.1477C153.459 21.412 153.182 20.8796 152.629 20.5505C152.096 20.2214 151.237 20.0568 150.052 20.0568H145.014V15.701H150.052C151.158 15.701 151.928 15.5654 152.363 15.2944C152.797 15.0234 153.015 14.5587 153.015 13.9005C153.015 13.2229 152.787 12.7486 152.333 12.4776C151.898 12.2066 151.138 12.0711 150.052 12.0711H147.977V24.2675H150.052Z" fill="#8009A9"/>
<path d="M142.051 28.7686V7.56998H149.755C152.758 7.56998 155.039 8.01525 156.6 8.90578C158.16 9.77696 158.941 11.074 158.941 12.797C158.941 14.0941 158.545 15.1589 157.755 15.9913C156.985 16.8238 155.899 17.3465 154.496 17.5595V17.6175C156.136 17.8111 157.38 18.3435 158.229 19.2147C159.099 20.0665 159.533 21.2184 159.533 22.6704C159.533 24.6644 158.723 26.1841 157.103 27.2295C155.484 28.2556 153.133 28.7686 150.052 28.7686H142.051ZM150.052 24.2675C151.217 24.2675 152.076 24.0933 152.629 23.7448C153.182 23.3963 153.459 22.864 153.459 22.1477C153.459 21.412 153.182 20.8796 152.629 20.5505C152.096 20.2214 151.237 20.0568 150.052 20.0568H145.014V15.701H150.052C151.158 15.701 151.928 15.5654 152.363 15.2944C152.797 15.0234 153.015 14.5587 153.015 13.9005C153.015 13.2229 152.787 12.7486 152.333 12.4776C151.898 12.2066 151.138 12.0711 150.052 12.0711H147.977V24.2675H150.052Z" fill="url(#paint18_linear_6009_4881)"/>
<path d="M142.051 28.7686V7.56998H149.755C152.758 7.56998 155.039 8.01525 156.6 8.90578C158.16 9.77696 158.941 11.074 158.941 12.797C158.941 14.0941 158.545 15.1589 157.755 15.9913C156.985 16.8238 155.899 17.3465 154.496 17.5595V17.6175C156.136 17.8111 157.38 18.3435 158.229 19.2147C159.099 20.0665 159.533 21.2184 159.533 22.6704C159.533 24.6644 158.723 26.1841 157.103 27.2295C155.484 28.2556 153.133 28.7686 150.052 28.7686H142.051ZM150.052 24.2675C151.217 24.2675 152.076 24.0933 152.629 23.7448C153.182 23.3963 153.459 22.864 153.459 22.1477C153.459 21.412 153.182 20.8796 152.629 20.5505C152.096 20.2214 151.237 20.0568 150.052 20.0568H145.014V15.701H150.052C151.158 15.701 151.928 15.5654 152.363 15.2944C152.797 15.0234 153.015 14.5587 153.015 13.9005C153.015 13.2229 152.787 12.7486 152.333 12.4776C151.898 12.2066 151.138 12.0711 150.052 12.0711H147.977V24.2675H150.052Z" fill="url(#paint19_linear_6009_4881)"/>
<path d="M142.051 28.7686V7.56998H149.755C152.758 7.56998 155.039 8.01525 156.6 8.90578C158.16 9.77696 158.941 11.074 158.941 12.797C158.941 14.0941 158.545 15.1589 157.755 15.9913C156.985 16.8238 155.899 17.3465 154.496 17.5595V17.6175C156.136 17.8111 157.38 18.3435 158.229 19.2147C159.099 20.0665 159.533 21.2184 159.533 22.6704C159.533 24.6644 158.723 26.1841 157.103 27.2295C155.484 28.2556 153.133 28.7686 150.052 28.7686H142.051ZM150.052 24.2675C151.217 24.2675 152.076 24.0933 152.629 23.7448C153.182 23.3963 153.459 22.864 153.459 22.1477C153.459 21.412 153.182 20.8796 152.629 20.5505C152.096 20.2214 151.237 20.0568 150.052 20.0568H145.014V15.701H150.052C151.158 15.701 151.928 15.5654 152.363 15.2944C152.797 15.0234 153.015 14.5587 153.015 13.9005C153.015 13.2229 152.787 12.7486 152.333 12.4776C151.898 12.2066 151.138 12.0711 150.052 12.0711H147.977V24.2675H150.052Z" fill="url(#paint20_linear_6009_4881)"/>
<path d="M162.191 28.7686V7.56998H177.894V12.2162H168.117V15.6429H177.302V20.1149H168.117V24.1223H177.894V28.7686H162.191Z" fill="#8009A9"/>
<path d="M162.191 28.7686V7.56998H177.894V12.2162H168.117V15.6429H177.302V20.1149H168.117V24.1223H177.894V28.7686H162.191Z" fill="url(#paint21_linear_6009_4881)"/>
<path d="M162.191 28.7686V7.56998H177.894V12.2162H168.117V15.6429H177.302V20.1149H168.117V24.1223H177.894V28.7686H162.191Z" fill="url(#paint22_linear_6009_4881)"/>
<path d="M162.191 28.7686V7.56998H177.894V12.2162H168.117V15.6429H177.302V20.1149H168.117V24.1223H177.894V28.7686H162.191Z" fill="url(#paint23_linear_6009_4881)"/>
<path d="M181.172 28.7686V7.56998H187.246V23.8319H197.469V28.7686H181.172Z" fill="#8009A9"/>
<path d="M181.172 28.7686V7.56998H187.246V23.8319H197.469V28.7686H181.172Z" fill="url(#paint24_linear_6009_4881)"/>
<path d="M181.172 28.7686V7.56998H187.246V23.8319H197.469V28.7686H181.172Z" fill="url(#paint25_linear_6009_4881)"/>
<path d="M181.172 28.7686V7.56998H187.246V23.8319H197.469V28.7686H181.172Z" fill="url(#paint26_linear_6009_4881)"/>
<path d="M115.935 49.4312C115.935 48.8899 115.935 48.3649 115.935 47.8562C115.935 47.3475 115.935 46.7829 115.935 46.1622V43.0892C115.935 42.4499 115.935 41.8712 115.935 41.3532C115.935 40.8352 115.935 40.3009 115.935 39.7502L116.684 41.1642H115.403C114.866 41.1642 114.388 41.1642 113.968 41.1642C113.553 41.1642 113.158 41.1642 112.785 41.1642V39.4492H121.031V41.1642C120.658 41.1642 120.263 41.1642 119.848 41.1642C119.433 41.1642 118.954 41.1642 118.413 41.1642H117.132L117.888 39.7502C117.888 40.3009 117.888 40.8352 117.888 41.3532C117.888 41.8712 117.888 42.4499 117.888 43.0892V46.1622C117.888 46.7829 117.888 47.3475 117.888 47.8562C117.888 48.3649 117.888 48.8899 117.888 49.4312H115.935ZM127.088 49.6062C126.206 49.6062 125.439 49.4685 124.785 49.1932C124.137 48.9179 123.6 48.5399 123.175 48.0592C122.755 47.5785 122.44 47.0279 122.23 46.4072C122.025 45.7865 121.922 45.1309 121.922 44.4402C121.922 43.4742 122.116 42.5992 122.503 41.8152C122.891 41.0265 123.462 40.4035 124.218 39.9462C124.979 39.4842 125.917 39.2532 127.032 39.2532C127.882 39.2532 128.626 39.3862 129.265 39.6522C129.905 39.9182 130.439 40.2892 130.868 40.7652C131.298 41.2412 131.62 41.7919 131.834 42.4172C132.049 43.0425 132.156 43.7145 132.156 44.4332C132.156 45.4225 131.96 46.3069 131.568 47.0862C131.176 47.8655 130.602 48.4815 129.846 48.9342C129.09 49.3822 128.171 49.6062 127.088 49.6062ZM127.053 47.9752C127.576 47.9752 128.029 47.8819 128.411 47.6952C128.794 47.5039 129.111 47.2425 129.363 46.9112C129.62 46.5752 129.809 46.1949 129.93 45.7702C130.056 45.3455 130.119 44.8999 130.119 44.4332C130.119 43.9339 130.052 43.4695 129.916 43.0402C129.781 42.6109 129.583 42.2352 129.321 41.9132C129.065 41.5865 128.745 41.3345 128.362 41.1572C127.984 40.9752 127.548 40.8842 127.053 40.8842C126.545 40.8842 126.097 40.9775 125.709 41.1642C125.322 41.3509 124.998 41.6099 124.736 41.9412C124.48 42.2725 124.286 42.6529 124.155 43.0822C124.025 43.5069 123.959 43.9572 123.959 44.4332C123.959 44.9092 124.022 45.3595 124.148 45.7842C124.274 46.2089 124.466 46.5869 124.722 46.9182C124.979 47.2495 125.301 47.5085 125.688 47.6952C126.076 47.8819 126.531 47.9752 127.053 47.9752ZM139.981 49.4312C139.627 48.9739 139.293 48.5445 138.98 48.1432C138.672 47.7419 138.369 47.3499 138.07 46.9672L136.558 45.0282H135.9V43.4742H136.537L137.874 41.8782C138.187 41.5002 138.497 41.1245 138.805 40.7512C139.118 40.3779 139.477 39.9439 139.883 39.4492H142.165C141.708 39.9765 141.26 40.4945 140.821 41.0032C140.387 41.5119 139.949 42.0229 139.505 42.5362L137.839 44.4752L137.804 43.6142L139.659 45.9872C139.944 46.3512 140.25 46.7432 140.576 47.1632C140.908 47.5832 141.23 47.9915 141.542 48.3882C141.855 48.7849 142.128 49.1325 142.361 49.4312H139.981ZM134.115 49.4312C134.115 48.8899 134.115 48.3649 134.115 47.8562C134.115 47.3475 134.115 46.7829 134.115 46.1622V42.7882C134.115 42.1489 134.115 41.5702 134.115 41.0522C134.115 40.5342 134.115 39.9999 134.115 39.4492H136.075C136.075 39.9999 136.075 40.5342 136.075 41.0522C136.075 41.5702 136.075 42.1489 136.075 42.7882V46.1622C136.075 46.7829 136.075 47.3475 136.075 47.8562C136.075 48.3649 136.075 48.8899 136.075 49.4312H134.115ZM144.048 49.4312C144.048 48.8899 144.048 48.3649 144.048 47.8562C144.048 47.3475 144.048 46.7829 144.048 46.1622V42.7812C144.048 42.1465 144.048 41.5702 144.048 41.0522C144.048 40.5342 144.048 39.9999 144.048 39.4492H150.53V41.0802C150.091 41.0802 149.617 41.0802 149.109 41.0802C148.605 41.0802 148.01 41.0802 147.324 41.0802H144.916L145.966 39.7502C145.966 40.3009 145.966 40.8375 145.966 41.3602C145.966 41.8782 145.966 42.4545 145.966 43.0892V45.8542C145.966 46.4749 145.966 47.0395 145.966 47.5482C145.966 48.0569 145.966 48.5842 145.966 49.1302L145.042 47.8002H147.471C148.045 47.8002 148.588 47.8002 149.102 47.8002C149.615 47.8002 150.107 47.8002 150.579 47.8002V49.4312H144.048ZM145.525 45.1612V43.6142H147.387C148.012 43.6142 148.549 43.6142 148.997 43.6142C149.445 43.6142 149.876 43.6142 150.292 43.6142V45.1612C149.853 45.1612 149.41 45.1612 148.962 45.1612C148.514 45.1612 147.986 45.1612 147.38 45.1612H145.525ZM152.668 49.4312C152.668 48.8899 152.668 48.3649 152.668 47.8562C152.668 47.3475 152.668 46.7829 152.668 46.1622V42.7882C152.668 42.1489 152.668 41.5702 152.668 41.0522C152.668 40.5342 152.668 39.9999 152.668 39.4492H154.39C154.903 40.1819 155.388 40.8795 155.846 41.5422C156.308 42.2049 156.767 42.8652 157.225 43.5232L159.024 46.1062H159.171V42.7882C159.171 42.1489 159.171 41.5702 159.171 41.0522C159.171 40.5342 159.171 39.9999 159.171 39.4492H161.019C161.019 39.9999 161.019 40.5342 161.019 41.0522C161.019 41.5702 161.019 42.1489 161.019 42.7882V46.1622C161.019 46.7829 161.019 47.3475 161.019 47.8562C161.019 48.3649 161.019 48.8899 161.019 49.4312H159.318C158.898 48.8245 158.457 48.1922 157.995 47.5342C157.533 46.8715 157.026 46.1459 156.476 45.3572L154.656 42.7462H154.509V46.1622C154.509 46.7829 154.509 47.3475 154.509 47.8562C154.509 48.3649 154.509 48.8899 154.509 49.4312H152.668Z" fill="#8009A9"/>
<path d="M115.935 49.4312C115.935 48.8899 115.935 48.3649 115.935 47.8562C115.935 47.3475 115.935 46.7829 115.935 46.1622V43.0892C115.935 42.4499 115.935 41.8712 115.935 41.3532C115.935 40.8352 115.935 40.3009 115.935 39.7502L116.684 41.1642H115.403C114.866 41.1642 114.388 41.1642 113.968 41.1642C113.553 41.1642 113.158 41.1642 112.785 41.1642V39.4492H121.031V41.1642C120.658 41.1642 120.263 41.1642 119.848 41.1642C119.433 41.1642 118.954 41.1642 118.413 41.1642H117.132L117.888 39.7502C117.888 40.3009 117.888 40.8352 117.888 41.3532C117.888 41.8712 117.888 42.4499 117.888 43.0892V46.1622C117.888 46.7829 117.888 47.3475 117.888 47.8562C117.888 48.3649 117.888 48.8899 117.888 49.4312H115.935ZM127.088 49.6062C126.206 49.6062 125.439 49.4685 124.785 49.1932C124.137 48.9179 123.6 48.5399 123.175 48.0592C122.755 47.5785 122.44 47.0279 122.23 46.4072C122.025 45.7865 121.922 45.1309 121.922 44.4402C121.922 43.4742 122.116 42.5992 122.503 41.8152C122.891 41.0265 123.462 40.4035 124.218 39.9462C124.979 39.4842 125.917 39.2532 127.032 39.2532C127.882 39.2532 128.626 39.3862 129.265 39.6522C129.905 39.9182 130.439 40.2892 130.868 40.7652C131.298 41.2412 131.62 41.7919 131.834 42.4172C132.049 43.0425 132.156 43.7145 132.156 44.4332C132.156 45.4225 131.96 46.3069 131.568 47.0862C131.176 47.8655 130.602 48.4815 129.846 48.9342C129.09 49.3822 128.171 49.6062 127.088 49.6062ZM127.053 47.9752C127.576 47.9752 128.029 47.8819 128.411 47.6952C128.794 47.5039 129.111 47.2425 129.363 46.9112C129.62 46.5752 129.809 46.1949 129.93 45.7702C130.056 45.3455 130.119 44.8999 130.119 44.4332C130.119 43.9339 130.052 43.4695 129.916 43.0402C129.781 42.6109 129.583 42.2352 129.321 41.9132C129.065 41.5865 128.745 41.3345 128.362 41.1572C127.984 40.9752 127.548 40.8842 127.053 40.8842C126.545 40.8842 126.097 40.9775 125.709 41.1642C125.322 41.3509 124.998 41.6099 124.736 41.9412C124.48 42.2725 124.286 42.6529 124.155 43.0822C124.025 43.5069 123.959 43.9572 123.959 44.4332C123.959 44.9092 124.022 45.3595 124.148 45.7842C124.274 46.2089 124.466 46.5869 124.722 46.9182C124.979 47.2495 125.301 47.5085 125.688 47.6952C126.076 47.8819 126.531 47.9752 127.053 47.9752ZM139.981 49.4312C139.627 48.9739 139.293 48.5445 138.98 48.1432C138.672 47.7419 138.369 47.3499 138.07 46.9672L136.558 45.0282H135.9V43.4742H136.537L137.874 41.8782C138.187 41.5002 138.497 41.1245 138.805 40.7512C139.118 40.3779 139.477 39.9439 139.883 39.4492H142.165C141.708 39.9765 141.26 40.4945 140.821 41.0032C140.387 41.5119 139.949 42.0229 139.505 42.5362L137.839 44.4752L137.804 43.6142L139.659 45.9872C139.944 46.3512 140.25 46.7432 140.576 47.1632C140.908 47.5832 141.23 47.9915 141.542 48.3882C141.855 48.7849 142.128 49.1325 142.361 49.4312H139.981ZM134.115 49.4312C134.115 48.8899 134.115 48.3649 134.115 47.8562C134.115 47.3475 134.115 46.7829 134.115 46.1622V42.7882C134.115 42.1489 134.115 41.5702 134.115 41.0522C134.115 40.5342 134.115 39.9999 134.115 39.4492H136.075C136.075 39.9999 136.075 40.5342 136.075 41.0522C136.075 41.5702 136.075 42.1489 136.075 42.7882V46.1622C136.075 46.7829 136.075 47.3475 136.075 47.8562C136.075 48.3649 136.075 48.8899 136.075 49.4312H134.115ZM144.048 49.4312C144.048 48.8899 144.048 48.3649 144.048 47.8562C144.048 47.3475 144.048 46.7829 144.048 46.1622V42.7812C144.048 42.1465 144.048 41.5702 144.048 41.0522C144.048 40.5342 144.048 39.9999 144.048 39.4492H150.53V41.0802C150.091 41.0802 149.617 41.0802 149.109 41.0802C148.605 41.0802 148.01 41.0802 147.324 41.0802H144.916L145.966 39.7502C145.966 40.3009 145.966 40.8375 145.966 41.3602C145.966 41.8782 145.966 42.4545 145.966 43.0892V45.8542C145.966 46.4749 145.966 47.0395 145.966 47.5482C145.966 48.0569 145.966 48.5842 145.966 49.1302L145.042 47.8002H147.471C148.045 47.8002 148.588 47.8002 149.102 47.8002C149.615 47.8002 150.107 47.8002 150.579 47.8002V49.4312H144.048ZM145.525 45.1612V43.6142H147.387C148.012 43.6142 148.549 43.6142 148.997 43.6142C149.445 43.6142 149.876 43.6142 150.292 43.6142V45.1612C149.853 45.1612 149.41 45.1612 148.962 45.1612C148.514 45.1612 147.986 45.1612 147.38 45.1612H145.525ZM152.668 49.4312C152.668 48.8899 152.668 48.3649 152.668 47.8562C152.668 47.3475 152.668 46.7829 152.668 46.1622V42.7882C152.668 42.1489 152.668 41.5702 152.668 41.0522C152.668 40.5342 152.668 39.9999 152.668 39.4492H154.39C154.903 40.1819 155.388 40.8795 155.846 41.5422C156.308 42.2049 156.767 42.8652 157.225 43.5232L159.024 46.1062H159.171V42.7882C159.171 42.1489 159.171 41.5702 159.171 41.0522C159.171 40.5342 159.171 39.9999 159.171 39.4492H161.019C161.019 39.9999 161.019 40.5342 161.019 41.0522C161.019 41.5702 161.019 42.1489 161.019 42.7882V46.1622C161.019 46.7829 161.019 47.3475 161.019 47.8562C161.019 48.3649 161.019 48.8899 161.019 49.4312H159.318C158.898 48.8245 158.457 48.1922 157.995 47.5342C157.533 46.8715 157.026 46.1459 156.476 45.3572L154.656 42.7462H154.509V46.1622C154.509 46.7829 154.509 47.3475 154.509 47.8562C154.509 48.3649 154.509 48.8899 154.509 49.4312H152.668Z" fill="url(#paint27_linear_6009_4881)"/>
<path d="M115.935 49.4312C115.935 48.8899 115.935 48.3649 115.935 47.8562C115.935 47.3475 115.935 46.7829 115.935 46.1622V43.0892C115.935 42.4499 115.935 41.8712 115.935 41.3532C115.935 40.8352 115.935 40.3009 115.935 39.7502L116.684 41.1642H115.403C114.866 41.1642 114.388 41.1642 113.968 41.1642C113.553 41.1642 113.158 41.1642 112.785 41.1642V39.4492H121.031V41.1642C120.658 41.1642 120.263 41.1642 119.848 41.1642C119.433 41.1642 118.954 41.1642 118.413 41.1642H117.132L117.888 39.7502C117.888 40.3009 117.888 40.8352 117.888 41.3532C117.888 41.8712 117.888 42.4499 117.888 43.0892V46.1622C117.888 46.7829 117.888 47.3475 117.888 47.8562C117.888 48.3649 117.888 48.8899 117.888 49.4312H115.935ZM127.088 49.6062C126.206 49.6062 125.439 49.4685 124.785 49.1932C124.137 48.9179 123.6 48.5399 123.175 48.0592C122.755 47.5785 122.44 47.0279 122.23 46.4072C122.025 45.7865 121.922 45.1309 121.922 44.4402C121.922 43.4742 122.116 42.5992 122.503 41.8152C122.891 41.0265 123.462 40.4035 124.218 39.9462C124.979 39.4842 125.917 39.2532 127.032 39.2532C127.882 39.2532 128.626 39.3862 129.265 39.6522C129.905 39.9182 130.439 40.2892 130.868 40.7652C131.298 41.2412 131.62 41.7919 131.834 42.4172C132.049 43.0425 132.156 43.7145 132.156 44.4332C132.156 45.4225 131.96 46.3069 131.568 47.0862C131.176 47.8655 130.602 48.4815 129.846 48.9342C129.09 49.3822 128.171 49.6062 127.088 49.6062ZM127.053 47.9752C127.576 47.9752 128.029 47.8819 128.411 47.6952C128.794 47.5039 129.111 47.2425 129.363 46.9112C129.62 46.5752 129.809 46.1949 129.93 45.7702C130.056 45.3455 130.119 44.8999 130.119 44.4332C130.119 43.9339 130.052 43.4695 129.916 43.0402C129.781 42.6109 129.583 42.2352 129.321 41.9132C129.065 41.5865 128.745 41.3345 128.362 41.1572C127.984 40.9752 127.548 40.8842 127.053 40.8842C126.545 40.8842 126.097 40.9775 125.709 41.1642C125.322 41.3509 124.998 41.6099 124.736 41.9412C124.48 42.2725 124.286 42.6529 124.155 43.0822C124.025 43.5069 123.959 43.9572 123.959 44.4332C123.959 44.9092 124.022 45.3595 124.148 45.7842C124.274 46.2089 124.466 46.5869 124.722 46.9182C124.979 47.2495 125.301 47.5085 125.688 47.6952C126.076 47.8819 126.531 47.9752 127.053 47.9752ZM139.981 49.4312C139.627 48.9739 139.293 48.5445 138.98 48.1432C138.672 47.7419 138.369 47.3499 138.07 46.9672L136.558 45.0282H135.9V43.4742H136.537L137.874 41.8782C138.187 41.5002 138.497 41.1245 138.805 40.7512C139.118 40.3779 139.477 39.9439 139.883 39.4492H142.165C141.708 39.9765 141.26 40.4945 140.821 41.0032C140.387 41.5119 139.949 42.0229 139.505 42.5362L137.839 44.4752L137.804 43.6142L139.659 45.9872C139.944 46.3512 140.25 46.7432 140.576 47.1632C140.908 47.5832 141.23 47.9915 141.542 48.3882C141.855 48.7849 142.128 49.1325 142.361 49.4312H139.981ZM134.115 49.4312C134.115 48.8899 134.115 48.3649 134.115 47.8562C134.115 47.3475 134.115 46.7829 134.115 46.1622V42.7882C134.115 42.1489 134.115 41.5702 134.115 41.0522C134.115 40.5342 134.115 39.9999 134.115 39.4492H136.075C136.075 39.9999 136.075 40.5342 136.075 41.0522C136.075 41.5702 136.075 42.1489 136.075 42.7882V46.1622C136.075 46.7829 136.075 47.3475 136.075 47.8562C136.075 48.3649 136.075 48.8899 136.075 49.4312H134.115ZM144.048 49.4312C144.048 48.8899 144.048 48.3649 144.048 47.8562C144.048 47.3475 144.048 46.7829 144.048 46.1622V42.7812C144.048 42.1465 144.048 41.5702 144.048 41.0522C144.048 40.5342 144.048 39.9999 144.048 39.4492H150.53V41.0802C150.091 41.0802 149.617 41.0802 149.109 41.0802C148.605 41.0802 148.01 41.0802 147.324 41.0802H144.916L145.966 39.7502C145.966 40.3009 145.966 40.8375 145.966 41.3602C145.966 41.8782 145.966 42.4545 145.966 43.0892V45.8542C145.966 46.4749 145.966 47.0395 145.966 47.5482C145.966 48.0569 145.966 48.5842 145.966 49.1302L145.042 47.8002H147.471C148.045 47.8002 148.588 47.8002 149.102 47.8002C149.615 47.8002 150.107 47.8002 150.579 47.8002V49.4312H144.048ZM145.525 45.1612V43.6142H147.387C148.012 43.6142 148.549 43.6142 148.997 43.6142C149.445 43.6142 149.876 43.6142 150.292 43.6142V45.1612C149.853 45.1612 149.41 45.1612 148.962 45.1612C148.514 45.1612 147.986 45.1612 147.38 45.1612H145.525ZM152.668 49.4312C152.668 48.8899 152.668 48.3649 152.668 47.8562C152.668 47.3475 152.668 46.7829 152.668 46.1622V42.7882C152.668 42.1489 152.668 41.5702 152.668 41.0522C152.668 40.5342 152.668 39.9999 152.668 39.4492H154.39C154.903 40.1819 155.388 40.8795 155.846 41.5422C156.308 42.2049 156.767 42.8652 157.225 43.5232L159.024 46.1062H159.171V42.7882C159.171 42.1489 159.171 41.5702 159.171 41.0522C159.171 40.5342 159.171 39.9999 159.171 39.4492H161.019C161.019 39.9999 161.019 40.5342 161.019 41.0522C161.019 41.5702 161.019 42.1489 161.019 42.7882V46.1622C161.019 46.7829 161.019 47.3475 161.019 47.8562C161.019 48.3649 161.019 48.8899 161.019 49.4312H159.318C158.898 48.8245 158.457 48.1922 157.995 47.5342C157.533 46.8715 157.026 46.1459 156.476 45.3572L154.656 42.7462H154.509V46.1622C154.509 46.7829 154.509 47.3475 154.509 47.8562C154.509 48.3649 154.509 48.8899 154.509 49.4312H152.668Z" fill="url(#paint28_linear_6009_4881)"/>
<path d="M115.935 49.4312C115.935 48.8899 115.935 48.3649 115.935 47.8562C115.935 47.3475 115.935 46.7829 115.935 46.1622V43.0892C115.935 42.4499 115.935 41.8712 115.935 41.3532C115.935 40.8352 115.935 40.3009 115.935 39.7502L116.684 41.1642H115.403C114.866 41.1642 114.388 41.1642 113.968 41.1642C113.553 41.1642 113.158 41.1642 112.785 41.1642V39.4492H121.031V41.1642C120.658 41.1642 120.263 41.1642 119.848 41.1642C119.433 41.1642 118.954 41.1642 118.413 41.1642H117.132L117.888 39.7502C117.888 40.3009 117.888 40.8352 117.888 41.3532C117.888 41.8712 117.888 42.4499 117.888 43.0892V46.1622C117.888 46.7829 117.888 47.3475 117.888 47.8562C117.888 48.3649 117.888 48.8899 117.888 49.4312H115.935ZM127.088 49.6062C126.206 49.6062 125.439 49.4685 124.785 49.1932C124.137 48.9179 123.6 48.5399 123.175 48.0592C122.755 47.5785 122.44 47.0279 122.23 46.4072C122.025 45.7865 121.922 45.1309 121.922 44.4402C121.922 43.4742 122.116 42.5992 122.503 41.8152C122.891 41.0265 123.462 40.4035 124.218 39.9462C124.979 39.4842 125.917 39.2532 127.032 39.2532C127.882 39.2532 128.626 39.3862 129.265 39.6522C129.905 39.9182 130.439 40.2892 130.868 40.7652C131.298 41.2412 131.62 41.7919 131.834 42.4172C132.049 43.0425 132.156 43.7145 132.156 44.4332C132.156 45.4225 131.96 46.3069 131.568 47.0862C131.176 47.8655 130.602 48.4815 129.846 48.9342C129.09 49.3822 128.171 49.6062 127.088 49.6062ZM127.053 47.9752C127.576 47.9752 128.029 47.8819 128.411 47.6952C128.794 47.5039 129.111 47.2425 129.363 46.9112C129.62 46.5752 129.809 46.1949 129.93 45.7702C130.056 45.3455 130.119 44.8999 130.119 44.4332C130.119 43.9339 130.052 43.4695 129.916 43.0402C129.781 42.6109 129.583 42.2352 129.321 41.9132C129.065 41.5865 128.745 41.3345 128.362 41.1572C127.984 40.9752 127.548 40.8842 127.053 40.8842C126.545 40.8842 126.097 40.9775 125.709 41.1642C125.322 41.3509 124.998 41.6099 124.736 41.9412C124.48 42.2725 124.286 42.6529 124.155 43.0822C124.025 43.5069 123.959 43.9572 123.959 44.4332C123.959 44.9092 124.022 45.3595 124.148 45.7842C124.274 46.2089 124.466 46.5869 124.722 46.9182C124.979 47.2495 125.301 47.5085 125.688 47.6952C126.076 47.8819 126.531 47.9752 127.053 47.9752ZM139.981 49.4312C139.627 48.9739 139.293 48.5445 138.98 48.1432C138.672 47.7419 138.369 47.3499 138.07 46.9672L136.558 45.0282H135.9V43.4742H136.537L137.874 41.8782C138.187 41.5002 138.497 41.1245 138.805 40.7512C139.118 40.3779 139.477 39.9439 139.883 39.4492H142.165C141.708 39.9765 141.26 40.4945 140.821 41.0032C140.387 41.5119 139.949 42.0229 139.505 42.5362L137.839 44.4752L137.804 43.6142L139.659 45.9872C139.944 46.3512 140.25 46.7432 140.576 47.1632C140.908 47.5832 141.23 47.9915 141.542 48.3882C141.855 48.7849 142.128 49.1325 142.361 49.4312H139.981ZM134.115 49.4312C134.115 48.8899 134.115 48.3649 134.115 47.8562C134.115 47.3475 134.115 46.7829 134.115 46.1622V42.7882C134.115 42.1489 134.115 41.5702 134.115 41.0522C134.115 40.5342 134.115 39.9999 134.115 39.4492H136.075C136.075 39.9999 136.075 40.5342 136.075 41.0522C136.075 41.5702 136.075 42.1489 136.075 42.7882V46.1622C136.075 46.7829 136.075 47.3475 136.075 47.8562C136.075 48.3649 136.075 48.8899 136.075 49.4312H134.115ZM144.048 49.4312C144.048 48.8899 144.048 48.3649 144.048 47.8562C144.048 47.3475 144.048 46.7829 144.048 46.1622V42.7812C144.048 42.1465 144.048 41.5702 144.048 41.0522C144.048 40.5342 144.048 39.9999 144.048 39.4492H150.53V41.0802C150.091 41.0802 149.617 41.0802 149.109 41.0802C148.605 41.0802 148.01 41.0802 147.324 41.0802H144.916L145.966 39.7502C145.966 40.3009 145.966 40.8375 145.966 41.3602C145.966 41.8782 145.966 42.4545 145.966 43.0892V45.8542C145.966 46.4749 145.966 47.0395 145.966 47.5482C145.966 48.0569 145.966 48.5842 145.966 49.1302L145.042 47.8002H147.471C148.045 47.8002 148.588 47.8002 149.102 47.8002C149.615 47.8002 150.107 47.8002 150.579 47.8002V49.4312H144.048ZM145.525 45.1612V43.6142H147.387C148.012 43.6142 148.549 43.6142 148.997 43.6142C149.445 43.6142 149.876 43.6142 150.292 43.6142V45.1612C149.853 45.1612 149.41 45.1612 148.962 45.1612C148.514 45.1612 147.986 45.1612 147.38 45.1612H145.525ZM152.668 49.4312C152.668 48.8899 152.668 48.3649 152.668 47.8562C152.668 47.3475 152.668 46.7829 152.668 46.1622V42.7882C152.668 42.1489 152.668 41.5702 152.668 41.0522C152.668 40.5342 152.668 39.9999 152.668 39.4492H154.39C154.903 40.1819 155.388 40.8795 155.846 41.5422C156.308 42.2049 156.767 42.8652 157.225 43.5232L159.024 46.1062H159.171V42.7882C159.171 42.1489 159.171 41.5702 159.171 41.0522C159.171 40.5342 159.171 39.9999 159.171 39.4492H161.019C161.019 39.9999 161.019 40.5342 161.019 41.0522C161.019 41.5702 161.019 42.1489 161.019 42.7882V46.1622C161.019 46.7829 161.019 47.3475 161.019 47.8562C161.019 48.3649 161.019 48.8899 161.019 49.4312H159.318C158.898 48.8245 158.457 48.1922 157.995 47.5342C157.533 46.8715 157.026 46.1459 156.476 45.3572L154.656 42.7462H154.509V46.1622C154.509 46.7829 154.509 47.3475 154.509 47.8562C154.509 48.3649 154.509 48.8899 154.509 49.4312H152.668Z" fill="url(#paint29_linear_6009_4881)"/>
<defs>
<linearGradient id="paint0_linear_6009_4881" x1="65.5579" y1="43.2663" x2="-1.39107" y2="43.2537" gradientUnits="userSpaceOnUse">
<stop stop-color="#4E0C65"/>
<stop offset="1" stop-color="#220952"/>
</linearGradient>
<linearGradient id="paint1_linear_6009_4881" x1="-8.84393" y1="-6.42954" x2="32.1637" y2="75.7135" gradientUnits="userSpaceOnUse">
<stop stop-color="#F95E49"/>
<stop offset="0.515625" stop-color="#CC306A"/>
<stop offset="1" stop-color="#383C6C"/>
</linearGradient>
<linearGradient id="paint2_linear_6009_4881" x1="6.27338e-08" y1="27.924" x2="63.5553" y2="27.924" gradientUnits="userSpaceOnUse">
<stop stop-color="#3D387A"/>
<stop offset="1" stop-color="#9F3259"/>
</linearGradient>
<linearGradient id="paint3_linear_6009_4881" x1="65.5579" y1="43.2663" x2="-1.39107" y2="43.2537" gradientUnits="userSpaceOnUse">
<stop stop-color="#4E0C65"/>
<stop offset="1" stop-color="#220952"/>
</linearGradient>
<linearGradient id="paint4_linear_6009_4881" x1="-8.84393" y1="-6.42954" x2="32.1637" y2="75.7135" gradientUnits="userSpaceOnUse">
<stop stop-color="#F95E49"/>
<stop offset="0.515625" stop-color="#CC306A"/>
<stop offset="1" stop-color="#383C6C"/>
</linearGradient>
<linearGradient id="paint5_linear_6009_4881" x1="6.27338e-08" y1="27.924" x2="63.5553" y2="27.924" gradientUnits="userSpaceOnUse">
<stop stop-color="#3D387A"/>
<stop offset="1" stop-color="#9F3259"/>
</linearGradient>
<linearGradient id="paint6_linear_6009_4881" x1="65.5579" y1="43.2663" x2="-1.39107" y2="43.2537" gradientUnits="userSpaceOnUse">
<stop stop-color="#4E0C65"/>
<stop offset="1" stop-color="#220952"/>
</linearGradient>
<linearGradient id="paint7_linear_6009_4881" x1="-8.84393" y1="-6.42954" x2="32.1637" y2="75.7135" gradientUnits="userSpaceOnUse">
<stop stop-color="#F95E49"/>
<stop offset="0.515625" stop-color="#CC306A"/>
<stop offset="1" stop-color="#383C6C"/>
</linearGradient>
<linearGradient id="paint8_linear_6009_4881" x1="6.27338e-08" y1="27.924" x2="63.5553" y2="27.924" gradientUnits="userSpaceOnUse">
<stop stop-color="#3D387A"/>
<stop offset="1" stop-color="#9F3259"/>
</linearGradient>
<linearGradient id="paint9_linear_6009_4881" x1="201.263" y1="24.272" x2="74.4057" y2="24.1569" gradientUnits="userSpaceOnUse">
<stop stop-color="#4E0C65"/>
<stop offset="1" stop-color="#220952"/>
</linearGradient>
<linearGradient id="paint10_linear_6009_4881" x1="60.2836" y1="4.75445" x2="64.4095" y2="44.6285" gradientUnits="userSpaceOnUse">
<stop stop-color="#F95E49"/>
<stop offset="0.515625" stop-color="#CC306A"/>
<stop offset="1" stop-color="#383C6C"/>
</linearGradient>
<linearGradient id="paint11_linear_6009_4881" x1="77.0415" y1="18.2464" x2="197.469" y2="18.2464" gradientUnits="userSpaceOnUse">
<stop stop-color="#3D387A"/>
<stop offset="1" stop-color="#9F3259"/>
</linearGradient>
<linearGradient id="paint12_linear_6009_4881" x1="201.263" y1="24.272" x2="74.4057" y2="24.1569" gradientUnits="userSpaceOnUse">
<stop stop-color="#4E0C65"/>
<stop offset="1" stop-color="#220952"/>
</linearGradient>
<linearGradient id="paint13_linear_6009_4881" x1="60.2836" y1="4.75445" x2="64.4095" y2="44.6285" gradientUnits="userSpaceOnUse">
<stop stop-color="#F95E49"/>
<stop offset="0.515625" stop-color="#CC306A"/>
<stop offset="1" stop-color="#383C6C"/>
</linearGradient>
<linearGradient id="paint14_linear_6009_4881" x1="77.0415" y1="18.2464" x2="197.469" y2="18.2464" gradientUnits="userSpaceOnUse">
<stop stop-color="#3D387A"/>
<stop offset="1" stop-color="#9F3259"/>
</linearGradient>
<linearGradient id="paint15_linear_6009_4881" x1="201.263" y1="24.272" x2="74.4057" y2="24.1569" gradientUnits="userSpaceOnUse">
<stop stop-color="#4E0C65"/>
<stop offset="1" stop-color="#220952"/>
</linearGradient>
<linearGradient id="paint16_linear_6009_4881" x1="60.2836" y1="4.75445" x2="64.4095" y2="44.6285" gradientUnits="userSpaceOnUse">
<stop stop-color="#F95E49"/>
<stop offset="0.515625" stop-color="#CC306A"/>
<stop offset="1" stop-color="#383C6C"/>
</linearGradient>
<linearGradient id="paint17_linear_6009_4881" x1="77.0415" y1="18.2464" x2="197.469" y2="18.2464" gradientUnits="userSpaceOnUse">
<stop stop-color="#3D387A"/>
<stop offset="1" stop-color="#9F3259"/>
</linearGradient>
<linearGradient id="paint18_linear_6009_4881" x1="201.263" y1="24.272" x2="74.4057" y2="24.1569" gradientUnits="userSpaceOnUse">
<stop stop-color="#4E0C65"/>
<stop offset="1" stop-color="#220952"/>
</linearGradient>
<linearGradient id="paint19_linear_6009_4881" x1="60.2836" y1="4.75445" x2="64.4095" y2="44.6285" gradientUnits="userSpaceOnUse">
<stop stop-color="#F95E49"/>
<stop offset="0.515625" stop-color="#CC306A"/>
<stop offset="1" stop-color="#383C6C"/>
</linearGradient>
<linearGradient id="paint20_linear_6009_4881" x1="77.0415" y1="18.2464" x2="197.469" y2="18.2464" gradientUnits="userSpaceOnUse">
<stop stop-color="#3D387A"/>
<stop offset="1" stop-color="#9F3259"/>
</linearGradient>
<linearGradient id="paint21_linear_6009_4881" x1="201.263" y1="24.272" x2="74.4057" y2="24.1569" gradientUnits="userSpaceOnUse">
<stop stop-color="#4E0C65"/>
<stop offset="1" stop-color="#220952"/>
</linearGradient>
<linearGradient id="paint22_linear_6009_4881" x1="60.2836" y1="4.75445" x2="64.4095" y2="44.6285" gradientUnits="userSpaceOnUse">
<stop stop-color="#F95E49"/>
<stop offset="0.515625" stop-color="#CC306A"/>
<stop offset="1" stop-color="#383C6C"/>
</linearGradient>
<linearGradient id="paint23_linear_6009_4881" x1="77.0415" y1="18.2464" x2="197.469" y2="18.2464" gradientUnits="userSpaceOnUse">
<stop stop-color="#3D387A"/>
<stop offset="1" stop-color="#9F3259"/>
</linearGradient>
<linearGradient id="paint24_linear_6009_4881" x1="201.263" y1="24.272" x2="74.4057" y2="24.1569" gradientUnits="userSpaceOnUse">
<stop stop-color="#4E0C65"/>
<stop offset="1" stop-color="#220952"/>
</linearGradient>
<linearGradient id="paint25_linear_6009_4881" x1="60.2836" y1="4.75445" x2="64.4095" y2="44.6285" gradientUnits="userSpaceOnUse">
<stop stop-color="#F95E49"/>
<stop offset="0.515625" stop-color="#CC306A"/>
<stop offset="1" stop-color="#383C6C"/>
</linearGradient>
<linearGradient id="paint26_linear_6009_4881" x1="77.0415" y1="18.2464" x2="197.469" y2="18.2464" gradientUnits="userSpaceOnUse">
<stop stop-color="#3D387A"/>
<stop offset="1" stop-color="#9F3259"/>
</linearGradient>
<linearGradient id="paint27_linear_6009_4881" x1="207.143" y1="48.6947" x2="68.6325" y2="48.519" gradientUnits="userSpaceOnUse">
<stop stop-color="#4E0C65"/>
<stop offset="1" stop-color="#220952"/>
</linearGradient>
<linearGradient id="paint28_linear_6009_4881" x1="53.213" y1="33.4602" x2="55.5273" y2="64.7461" gradientUnits="userSpaceOnUse">
<stop stop-color="#F95E49"/>
<stop offset="0.515625" stop-color="#CC306A"/>
<stop offset="1" stop-color="#383C6C"/>
</linearGradient>
<linearGradient id="paint29_linear_6009_4881" x1="71.5103" y1="43.9914" x2="203" y2="43.9914" gradientUnits="userSpaceOnUse">
<stop stop-color="#3D387A"/>
<stop offset="1" stop-color="#9F3259"/>
</linearGradient>
</defs>
</svg>
