<svg width="50" height="44" viewBox="0 0 50 44" fill="none" xmlns="http://www.w3.org/2000/svg">
<path d="M19.1425 9.79615C22.1293 8.01363 25.6656 7.39422 29.0784 8.0558C32.4912 8.71739 35.5423 10.6138 37.651 13.3841L43.8341 8.65377C40.5677 4.3625 35.8415 1.42496 30.555 0.400155C25.2685 -0.624647 19.7907 0.334825 15.1641 3.09599C11.5055 5.27938 8.58105 8.46885 6.71561 12.2532H0V15.5949H5.3951L13.7447 15.5949C14.9511 13.2013 16.8171 11.1839 19.1425 9.79615Z" fill="black"/>
<path d="M19.1425 9.79615C22.1293 8.01363 25.6656 7.39422 29.0784 8.0558C32.4912 8.71739 35.5423 10.6138 37.651 13.3841L43.8341 8.65377C40.5677 4.3625 35.8415 1.42496 30.555 0.400155C25.2685 -0.624647 19.7907 0.334825 15.1641 3.09599C11.5055 5.27938 8.58105 8.46885 6.71561 12.2532H0V15.5949H5.3951L13.7447 15.5949C14.9511 13.2013 16.8171 11.1839 19.1425 9.79615Z" fill="#787171"/>
<path d="M4.44622 21.7215H0V17.8228L12.8489 17.8228C11.8374 21.1178 12.0557 24.6706 13.4654 27.8178C14.8893 30.9968 17.4293 33.5401 20.602 34.9636C22.3515 35.7485 24.2259 36.1627 26.1111 36.1998V36.2025L50 36.2025V39.5443H39.6294C37.6541 41.0426 35.424 42.2071 33.0238 42.9703C27.8914 44.6024 22.3396 44.2858 17.4249 42.0808C12.5102 39.8758 8.57571 35.9363 6.37008 31.0119C5.05184 28.0688 4.40618 24.8966 4.44622 21.7215Z" fill="black"/>
<path d="M4.44622 21.7215H0V17.8228L12.8489 17.8228C11.8374 21.1178 12.0557 24.6706 13.4654 27.8178C14.8893 30.9968 17.4293 33.5401 20.602 34.9636C22.3515 35.7485 24.2259 36.1627 26.1111 36.1998V36.2025L50 36.2025V39.5443H39.6294C37.6541 41.0426 35.424 42.2071 33.0238 42.9703C27.8914 44.6024 22.3396 44.2858 17.4249 42.0808C12.5102 39.8758 8.57571 35.9363 6.37008 31.0119C5.05184 28.0688 4.40618 24.8966 4.44622 21.7215Z" fill="#787171"/>
<path d="M34.0064 33.9747C35.8617 32.7884 37.4306 31.1756 38.5711 29.2494C39.2475 28.1071 39.7551 26.8849 40.0876 25.6203L30 25.6203V17.8228L47.7778 17.8228V17.8257L47.929 17.7962C48.7718 22.1362 48.2867 26.6066 46.5733 30.6329H50V33.9747L34.0064 33.9747Z" fill="black"/>
<path d="M34.0064 33.9747C35.8617 32.7884 37.4306 31.1756 38.5711 29.2494C39.2475 28.1071 39.7551 26.8849 40.0876 25.6203L30 25.6203V17.8228L47.7778 17.8228V17.8257L47.929 17.7962C48.7718 22.1362 48.2867 26.6066 46.5733 30.6329H50V33.9747L34.0064 33.9747Z" fill="#787171"/>
</svg>
