<svg width="33" height="33" viewBox="0 0 33 33" fill="none" xmlns="http://www.w3.org/2000/svg">
<g clip-path="url(#clip0_6001_7559)">
<circle cx="16.5917" cy="16.2245" r="16.2245" fill="url(#paint0_linear_6001_7559)"/>
<path d="M16.1866 8.93048C13.3622 8.93048 10.6802 8.67943 9.65583 11.3065C9.23268 12.3915 9.29413 13.8006 9.29413 15.8183C9.29413 17.5888 9.23735 19.2528 9.65583 20.3293C10.6779 22.9579 13.3817 22.7061 16.185 22.7061C18.8896 22.7061 21.6782 22.9874 22.715 20.3293C23.139 19.2334 23.0767 17.8453 23.0767 15.8183C23.0767 13.1275 23.2253 11.3904 21.9193 10.0862C20.597 8.76493 18.8087 8.93048 16.1835 8.93048H16.1866ZM15.569 10.1717C21.4604 10.1624 22.2102 9.50796 21.7964 18.5992C21.6494 21.8146 19.1992 21.4617 16.1874 21.4617C10.6958 21.4617 10.5379 21.3047 10.5379 15.8152C10.5379 10.2619 10.9735 10.1748 15.569 10.1702V10.1717ZM19.8658 11.315C19.4092 11.315 19.0389 11.685 19.0389 12.1412C19.0389 12.5974 19.4092 12.9674 19.8658 12.9674C20.3224 12.9674 20.6926 12.5974 20.6926 12.1412C20.6926 11.685 20.3224 11.315 19.8658 11.315ZM16.1866 12.2811C14.2319 12.2811 12.6474 13.8651 12.6474 15.8183C12.6474 17.7714 14.2319 19.3547 16.1866 19.3547C18.1413 19.3547 19.725 17.7714 19.725 15.8183C19.725 13.8651 18.1413 12.2811 16.1866 12.2811ZM16.1866 13.5223C19.2241 13.5223 19.228 18.1142 16.1866 18.1142C13.1499 18.1142 13.1452 13.5223 16.1866 13.5223Z" fill="white"/>
</g>
<defs>
<linearGradient id="paint0_linear_6001_7559" x1="2.54587" y1="30.3349" x2="32.6121" y2="4.30789" gradientUnits="userSpaceOnUse">
<stop stop-color="#FFDD55"/>
<stop offset="0.5" stop-color="#FF543E"/>
<stop offset="1" stop-color="#C837AB"/>
</linearGradient>
<clipPath id="clip0_6001_7559">
<rect width="32.449" height="32.449" fill="white" transform="matrix(-1 0 0 1 32.8164 0)"/>
</clipPath>
</defs>
</svg>
