<svg width="33" height="33" viewBox="0 0 33 33" fill="none" xmlns="http://www.w3.org/2000/svg">
<g clip-path="url(#clip0_6001_7562)">
<circle cx="16.7753" cy="16.2245" r="16.2245" fill="#18A3E6"/>
<g clip-path="url(#clip1_6001_7562)">
<path d="M13.4072 18.8877L13.1388 22.8513C13.5228 22.8513 13.6891 22.6781 13.8885 22.4702L15.6888 20.6637L19.4191 23.5321C20.1032 23.9324 20.5852 23.7216 20.7698 22.8712L23.2183 10.8241L23.219 10.8234C23.436 9.76152 22.8533 9.34627 22.1867 9.60678L7.79422 15.3925C6.81196 15.7929 6.82684 16.3678 7.62725 16.6283L11.3068 17.8301L19.8537 12.2147C20.256 11.935 20.6217 12.0897 20.3209 12.3694L13.4072 18.8877Z" fill="white"/>
</g>
</g>
<defs>
<clipPath id="clip0_6001_7562">
<rect width="32.449" height="32.449" fill="white" transform="matrix(-1 0 0 1 33 0)"/>
</clipPath>
<clipPath id="clip1_6001_7562">
<rect width="16.2245" height="17.0357" fill="white" transform="translate(7.04102 8.1123)"/>
</clipPath>
</defs>
</svg>
