<svg width="33" height="33" viewBox="0 0 33 33" fill="none" xmlns="http://www.w3.org/2000/svg">
<g clip-path="url(#clip0_6001_7554)">
<circle cx="16.4081" cy="16.2245" r="16.2245" fill="#FF0000"/>
<path d="M8.94071 12.4659C9.12027 11.8041 9.64633 11.2825 10.3134 11.1043C11.5323 10.7734 16.4077 10.7734 16.4077 10.7734C16.4077 10.7734 21.283 10.7734 22.5018 11.0917C23.1561 11.2697 23.695 11.8042 23.8746 12.4659C24.1953 13.6747 24.1953 16.1816 24.1953 16.1816C24.1953 16.1816 24.1953 18.7011 23.8746 19.8973C23.6949 20.559 23.169 21.0807 22.5017 21.2589C21.2702 21.5898 16.4076 21.5898 16.4076 21.5898C16.4076 21.5898 11.5323 21.5898 10.3134 21.2715C9.64621 21.0935 9.12027 20.5717 8.94059 19.91C8.61987 18.7011 8.61987 16.1943 8.61987 16.1943C8.61987 16.1943 8.60703 13.6747 8.94071 12.4659Z" fill="white"/>
<path d="M14.8926 18.5619L18.8946 16.1823L14.8926 13.8027V18.5619Z" fill="black"/>
</g>
<defs>
<clipPath id="clip0_6001_7554">
<rect width="32.449" height="32.449" fill="white" transform="matrix(-1 0 0 1 32.6328 0)"/>
</clipPath>
</defs>
</svg>
